<?xml version="1.0" encoding="UTF-8"?>
<svg id="Layer_1" xmlns="http://www.w3.org/2000/svg" version="1.1" viewBox="0 0 249.57 249.56">
  <!-- Generator: Adobe Illustrator 29.1.0, SVG Export Plug-In . SVG Version: 2.1.0 Build 142)  -->
  <defs>
    <style>
      .st0 {
        fill: #fff;
      }
    </style>
  </defs>
  <path class="st0" d="M124.78,249.56C55.98,249.56,0,193.59,0,124.78S55.98,0,124.78,0s124.78,55.98,124.78,124.78-55.98,124.78-124.78,124.78ZM124.78,9.67C61.31,9.67,9.67,61.31,9.67,124.78s51.64,115.11,115.12,115.11,115.11-51.64,115.11-115.11S188.26,9.67,124.78,9.67Z"/>
  <path class="st0" d="M111.4,124.26c-.67,4.72.2,9.09,2.03,12.22,2.63-2.5,4.67-6.47,5.33-11.18s-.2-9.09-2.03-12.22c-2.63,2.5-4.67,6.47-5.33,11.18Z"/>
  <path class="st0" d="M126.78,129.93c-4.6,1.24-8.28,3.75-10.44,6.67,3.34,1.44,7.78,1.75,12.38.51,4.6-1.24,8.28-3.75,10.44-6.67-3.34-1.44-7.78-1.75-12.38-.51Z"/>
  <g>
    <path class="st0" d="M210.91,169.17c-6.06-8-5.42-5.8-12.54-5.09-7.12.7-4.15-3.02-13.75-10.34-9.6-7.32-21.4-4.05-26.31-.01-4.91,4.03-19.43,3.74-19.43,3.74-26.42-1-12.25-18.34-21.72-21.54-20.33-6.85-26.35,20.86-26.35,20.86,3.54,1.68,14.13,1.9,17.27,1.72,0,0,.98,6.22,3.63,8.48,0,0-7.22.74-18.72-.81-11.5-1.55-12.79,2.79-13.1,5.1-.31,2.31,3.05,5.1,7.53,1.41,7.6-6.25,27.2,5.69,27.2,5.69,0,0,.06-.99-.29,5.77-4.8-3.31-16.68-3.07-21.12-.4-4.44,2.66-2.84,6.25.85,8.1s2.85-4.23,10.34-5.34,16.46,14.48,16.87,1.88c2.24-10.96,8.01-12.52,8.01-12.52-2.37,1.94-3.43,6.96-3.43,6.96,0,0,10.36,4.15,17.49,1.04,5.11-2.22,5.7-11.33,16.15-7.38,10.45,3.94,22.4,3.53,27.95,3.35,0,0,4.67,6.43,9.93,9.46.91.52,1.58,1.4,1.89,2.4.66,2.14,1.99,4.39,3.82,4.47,2.31.11,3.54-3.15,3.64-5,.09-1.85-2.58-5.12-8.36-7.48-5.78-2.36-2.14-10.05-7.89-9.36-19.41.4-19.94-8.11-19.94-8.11,0,0,1.01,2.45,11.76,5.51,10.75,3.06,22.63-1.73,22.63-1.73,0,0,4.41,1.48,4.06,7.39-.35,5.92,4.88,5.26,6.69,3.98,1.81-1.28,1.29-4.21-4.77-12.21ZM108.59,149.91c-2.27-.14-4-2.08-3.86-4.35.14-2.27,2.08-4,4.35-3.86s4,2.08,3.86,4.35c-.14,2.27-2.08,4-4.35,3.86Z"/>
    <circle class="st0" cx="108.83" cy="145.8" r="2.1"/>
    <circle class="st0" cx="186.97" cy="153.62" r="4.83"/>
  </g>
  <path class="st0" d="M132.78,116.11c-3.5-3.23-7.58-5.01-11.2-5.29.56,3.59,2.66,7.52,6.16,10.75,3.5,3.23,7.58,5.01,11.2,5.29-.56-3.59-2.66-7.52-6.16-10.75Z"/>
  <path class="st0" d="M115.99,79.57c-3.22,2.22-8.69,11.3-10.1,14.11,0,0-5.88-2.25-9.17-1.08,0,0,2.96-6.63,10.04-15.82,7.08-9.2,3.96-12.47,2.11-13.9-1.85-1.42-5.94.1-4.98,5.83,1.63,9.71-18.5,20.74-18.5,20.74,0,0,.83.55-4.86-3.13,5.27-2.51,10.98-12.93,10.88-18.1-.09-5.18-4-5.58-7.45-3.3s2.25,4.58-.53,11.63c-2.77,7.05-20.76,7.04-10.05,13.68,8.38,7.41,6.85,13.19,6.85,13.19-.5-3.02-4.32-6.45-4.32-6.45,0,0-8.76,6.91-9.63,14.64-.62,5.54,6.98,10.59-1.65,17.68-8.63,7.09-14.24,17.66-16.84,22.56,0,0-7.9.84-13.16,3.89-.91.53-2,.67-3.02.44-2.19-.5-4.8-.46-5.78,1.09-1.24,1.95.96,4.64,2.52,5.65,1.56,1.01,5.72.31,10.65-3.52,4.93-3.83,9.78,3.16,12.05-2.17,9.34-17.02,16.98-13.24,16.98-13.24,0,0-2.63-.34-10.64,7.44-8.01,7.79-9.79,20.48-9.79,20.48,0,0-3.48,3.09-8.43-.17-4.95-3.26-6.99,1.61-6.79,3.81.21,2.2,3.01,3.22,12.96,1.95,9.96-1.27,7.72-1.8,10.67-8.33s4.68-2.09,15.82-6.76c11.14-4.67,14.18-16.53,13.13-22.8-1.05-6.27,6.45-18.71,6.45-18.71,14.04-22.4,22.01-1.46,29.5-8.08,16.08-14.2-4.93-33.24-4.93-33.24ZM119.95,102.94c-1.25,1.9-3.8,2.43-5.7,1.18-1.9-1.25-2.43-3.8-1.18-5.7s3.8-2.43,5.7-1.18c1.9,1.25,2.43,3.8,1.18,5.7Z"/>
  <circle class="st0" cx="116.52" cy="100.68" r="2.1"/>
  <circle class="st0" cx="70.76" cy="164.5" r="4.83"/>
  <path class="st0" d="M186.62,115.26c-4.72-5.92,4.27-21.51-6.83-15.54-10.6,3.56-14.85-.66-14.85-.66,2.86,1.08,7.74-.52,7.74-.52,0,0-1.61-11.04-7.87-15.66-4.49-3.31-12.66.75-14.49-10.26-1.83-11.02-8.18-21.15-11.13-25.86,0,0,3.22-7.26,3.21-13.34,0-1.05.41-2.07,1.13-2.84,1.52-1.65,2.79-3.93,1.95-5.55-1.07-2.05-4.5-1.49-6.15-.64-1.65.85-3.13,4.8-2.28,10.99.85,6.18-7.63,6.89-4.14,11.52,10.08,16.59,2.98,21.32,2.98,21.32,0,0,1.61-2.1-1.13-12.94-2.74-10.83-12.85-18.71-12.85-18.71,0,0-.94-4.56,4.36-7.22,5.3-2.66,2.1-6.86.09-7.78s-4.29,1-8.17,10.26c-3.88,9.26-2.3,7.59,1.88,13.4,4.18,5.81-.53,5.1-2.05,17.08s7.23,20.54,13.19,22.77c5.95,2.23,12.99,14.93,12.99,14.93,12.39,23.36-9.73,19.8-7.74,29.59,4.27,21.02,31.26,12.34,31.26,12.34-.32-3.9-5.45-13.18-7.18-15.8,0,0,4.89-3.97,5.52-7.4,0,0,4.26,5.88,8.69,16.61,4.43,10.73,8.83,9.66,10.98,8.77,2.16-.89,2.88-5.19-2.56-7.22-9.22-3.44-8.72-26.39-8.72-26.39,0,0-.89.45,5.14-2.64-.46,5.82,5.71,15.97,10.24,18.47s6.83-.67,6.58-4.8c-.25-4.13-5.09-.34-9.81-6.27ZM151.03,135.53c-2.03,1.02-4.5.2-5.52-1.83-1.02-2.03-.2-4.5,1.83-5.52,2.03-1.02,4.5-.2,5.52,1.83,1.02,2.03.2,4.5-1.83,5.52Z"/>
  <circle class="st0" cx="149.18" cy="131.85" r="2.1"/>
  <circle class="st0" cx="116.75" cy="60.33" r="4.83"/>
</svg>