<?xml version="1.0" encoding="UTF-8"?>
<svg xmlns="http://www.w3.org/2000/svg" xmlns:xlink="http://www.w3.org/1999/xlink" version="1.1" viewBox="0 0 188.49 85.53">
  <defs>
    <style>
      .cls-1 {
        fill-rule: evenodd;
      }

      .cls-1, .cls-2, .cls-3 {
        fill: #fff;
      }

      .cls-4 {
        fill: url(#linear-gradient-8);
      }

      .cls-5 {
        fill: url(#linear-gradient-7);
      }

      .cls-6 {
        fill: url(#linear-gradient-5);
      }

      .cls-7 {
        fill: url(#linear-gradient-6);
      }

      .cls-8 {
        fill: url(#linear-gradient-9);
      }

      .cls-9 {
        fill: url(#linear-gradient-4);
      }

      .cls-10 {
        fill: url(#linear-gradient-3);
      }

      .cls-11 {
        fill: url(#linear-gradient-2);
      }

      .cls-12, .cls-13 {
        fill: #231f20;
      }

      .cls-14 {
        fill: url(#linear-gradient);
      }

      .cls-15 {
        fill: #000001;
      }

      .cls-16 {
        fill: #ed1c24;
      }

      .cls-17 {
        font-family: MyriadPro-Regular, 'Myriad Pro';
      }

      .cls-18 {
        fill: url(#linear-gradient-10);
      }

      .cls-19 {
        fill: url(#linear-gradient-11);
      }

      .cls-20 {
        fill: #faee3a;
        font-family: Monomials-Regular, Monomials;
        font-size: 5.46px;
        letter-spacing: -.02em;
      }

      .cls-3 {
        font-size: 5.69px;
      }

      .cls-13 {
        stroke: #fff;
        stroke-width: .07px;
      }

      .cls-13, .cls-21 {
        stroke-miterlimit: 10;
      }

      .cls-21 {
        fill: #00aeef;
        stroke: #231f20;
        stroke-width: 1.27px;
      }

      .cls-22 {
        font-family: Syne-Medium, Syne;
        font-weight: 500;
      }
    </style>
    <linearGradient id="linear-gradient" x1="821.03" y1="1117.03" x2="908.25" y2="1117.03" gradientTransform="translate(954.71 1164.72) rotate(-180)" gradientUnits="userSpaceOnUse">
      <stop offset="0" stop-color="#ed1c24"/>
      <stop offset=".02" stop-color="#ed2723"/>
      <stop offset=".06" stop-color="#f04521"/>
      <stop offset=".11" stop-color="#f4761e"/>
      <stop offset=".13" stop-color="#f7941d"/>
      <stop offset=".27" stop-color="#fff"/>
      <stop offset=".28" stop-color="#fffefb"/>
      <stop offset=".29" stop-color="#fffeef"/>
      <stop offset=".31" stop-color="#fffddb"/>
      <stop offset=".32" stop-color="#fffbbf"/>
      <stop offset=".33" stop-color="#fff99b"/>
      <stop offset=".34" stop-color="#fff770"/>
      <stop offset=".36" stop-color="#fff53c"/>
      <stop offset=".37" stop-color="#fff201"/>
      <stop offset=".37" stop-color="#fff200"/>
      <stop offset=".56" stop-color="#00a651"/>
      <stop offset=".69" stop-color="#00aeef"/>
      <stop offset=".72" stop-color="#01aaec"/>
      <stop offset=".75" stop-color="#059ee3"/>
      <stop offset=".79" stop-color="#0d8ad4"/>
      <stop offset=".82" stop-color="#176ec0"/>
      <stop offset=".85" stop-color="#244ba5"/>
      <stop offset=".87" stop-color="#2e3192"/>
      <stop offset="1" stop-color="#ec008c"/>
    </linearGradient>
    <linearGradient id="linear-gradient-2" x1="814.69" y1="1101.01" x2="918.9" y2="1101.01" xlink:href="#linear-gradient"/>
    <linearGradient id="linear-gradient-3" x1="108.54" y1="-21.2" x2="132.49" y2="27.68" gradientTransform="translate(-9.61 7.17) rotate(-.91)" gradientUnits="userSpaceOnUse">
      <stop offset=".04" stop-color="#bcbec0"/>
      <stop offset=".17" stop-color="#808285"/>
      <stop offset=".3" stop-color="#bcbec0"/>
      <stop offset=".59" stop-color="#e6e7e8"/>
    </linearGradient>
    <linearGradient id="linear-gradient-4" x1="62.48" y1="7.04" x2="79.69" y2="42.16" gradientTransform="translate(-9.61 7.17) rotate(-.91)" gradientUnits="userSpaceOnUse">
      <stop offset=".04" stop-color="#bcbec0"/>
      <stop offset=".17" stop-color="#808285"/>
      <stop offset=".3" stop-color="#bcbec0"/>
      <stop offset=".59" stop-color="#e6e7e8"/>
      <stop offset="1" stop-color="#fff"/>
    </linearGradient>
    <linearGradient id="linear-gradient-5" x1="95.56" y1="-24.06" x2="109.55" y2="4.47" gradientTransform="translate(-65.94 53.32) rotate(-6.5)" xlink:href="#linear-gradient-4"/>
    <linearGradient id="linear-gradient-6" x1="139.2" y1="-10.18" x2="156.26" y2="24.65" xlink:href="#linear-gradient-4"/>
    <linearGradient id="linear-gradient-7" x1="25.81" y1="18.02" x2="41.15" y2="49.31" xlink:href="#linear-gradient-4"/>
    <linearGradient id="linear-gradient-8" x1="-50.22" y1="156.28" x2="-25.58" y2="105.06" gradientTransform="translate(191.5 -103.32) rotate(16.61)" gradientUnits="userSpaceOnUse">
      <stop offset="0" stop-color="#00aeef"/>
      <stop offset=".17" stop-color="#fff"/>
      <stop offset=".19" stop-color="#fbfdfe"/>
      <stop offset=".22" stop-color="#effafe"/>
      <stop offset=".24" stop-color="#dbf4fd"/>
      <stop offset=".27" stop-color="#bfedfb"/>
      <stop offset=".29" stop-color="#9be3f9"/>
      <stop offset=".31" stop-color="#70d6f7"/>
      <stop offset=".34" stop-color="#3cc8f4"/>
      <stop offset=".36" stop-color="#01b7f1"/>
      <stop offset=".36" stop-color="#00b7f1"/>
      <stop offset=".4" stop-color="#03ace9"/>
      <stop offset=".46" stop-color="#0c91d6"/>
      <stop offset=".54" stop-color="#1b65b7"/>
      <stop offset=".62" stop-color="#2e3192"/>
      <stop offset="1" stop-color="#ec008c"/>
    </linearGradient>
    <linearGradient id="linear-gradient-9" x1="-50.22" y1="156.28" x2="-25.58" y2="105.06" xlink:href="#linear-gradient-8"/>
    <linearGradient id="linear-gradient-10" x1="-50.22" y1="156.28" x2="-25.58" y2="105.06" xlink:href="#linear-gradient-8"/>
    <linearGradient id="linear-gradient-11" x1="-50.22" y1="156.28" x2="-25.58" y2="105.06" xlink:href="#linear-gradient-8"/>
  </defs>
  <!-- Generator: Adobe Illustrator 28.7.2, SVG Export Plug-In . SVG Version: 1.2.0 Build 154)  -->
  <g>
    <g id="Layer_1">
      <text class="cls-20" transform="translate(98.02 83.1) scale(.78 1)"><tspan x="0" y="0">BETA</tspan></text>
      <g>
        <g>
          <path class="cls-12" d="M51.09,83.37c-.01-1.3-.18-2.19-.54-2.97l-.21-.46.45-.22c3.36-1.62,5.65-3.61,7.32-6.38h-1.09c-.81,0-1.09.02-1.71.09l-.91.11,1.79-3.8.38.07c.55.1.85.11,1.75.11h1.56c.25-.53.53-1.16.67-1.51.11-.27.15-.37.23-.63l.11-.38,3.66.1-.4.73c-.13.24-.22.39-.75,1.65l-.02.04h1.51c-.05-.43-.13-.76-.27-1.17l-.18-.5,2.41-.73h0s2-.6,2-.6l.18.41c.28.62.44,1.24.57,2.21l.06.41-2.29.81.51.83-.22.28c-.18.23-.2.25-.45.99-.33,1.02-1.49,4.33-1.82,5.2-1.06,2.67-1.75,3.83-2.74,4.61-.74.59-1.55.84-2.71.84-.72,0-.92-.03-2.04-.17l-.79-.1.2-.59c.53-1.56.72-2.41.8-3.47l.02-.33c-1.63,1.77-3.64,3.34-6.26,4.96l-.77.47v-.9ZM58.78,78.74c.59.22,1.27.37,1.72.37h0c.4,0,.58,0,1.35-1.67.49-1.05,1.17-2.75,1.64-4.08h-1.68s-.14.26-.14.26c-.95,1.89-2.02,3.49-3.32,4.96l.42.16Z"/>
          <path class="cls-2" d="M68.57,67.54c.27.59.41,1.18.53,2.07l-1.43.51c-.1-.95-.22-1.57-.45-2.16l1.36-.42M61.27,67.93l2.43.07c-.15.27-.24.45-.78,1.69-.14.34-.17.42-.32.74h2.83c-.05-.76-.13-1.23-.35-1.85l1.46-.44c.26.64.39,1.33.44,2.18l-.4.14.67,1.09c-.24.31-.28.4-.53,1.14-.33,1.02-1.48,4.3-1.82,5.18-.99,2.5-1.65,3.66-2.58,4.39-.65.52-1.36.73-2.4.73-.02,0-.04,0-.06,0-.66,0-.82-.03-2.09-.19.53-1.59.74-2.47.82-3.59.69.26,1.41.4,1.9.4,0,0,0,0,.01,0,.74,0,1.04-.32,1.8-1.96.56-1.22,1.42-3.38,1.89-4.8h-2.72s-.15.31-.15.31l-.12.23c-2.09,4.13-4.73,6.96-9.63,9.98-.01-1.42-.21-2.36-.59-3.18,3.85-1.86,6.25-4.13,7.97-7.34h-1.77c-.06,0-.12,0-.17,0-.83,0-1.14.02-1.79.1l1.24-2.62c.58.1.91.12,1.83.12h1.88c.28-.57.64-1.4.82-1.83.12-.29.17-.4.25-.69M69.13,66.31l-.86.26-1.12.34h0s-.89.26-.89.26l-1.12.34.27-.49-1.67-.05-2.43-.07-.79-.02-.22.76c-.07.23-.09.3-.21.58-.12.3-.33.77-.53,1.2h-1.24c-.91,0-1.17-.02-1.66-.11l-.77-.14-.33.7-1.24,2.62-.78,1.66,1.82-.22c.6-.07.86-.09,1.67-.09h.14c-1.57,2.3-3.63,3.97-6.62,5.41l-.91.44.43.91c.33.71.48,1.53.5,2.76l.02,1.8,1.53-.94c2.13-1.31,3.86-2.59,5.32-3.98-.12.61-.31,1.27-.63,2.23l-.39,1.18,1.23.15.19.02c1.11.14,1.34.17,2.03.17h.06c1.27,0,2.2-.29,3.03-.95,1.2-.94,1.94-2.42,2.89-4.81.34-.88,1.5-4.2,1.84-5.24q.22-.64.36-.82l.44-.56-.37-.6,1.31-.46.78-.28-.11-.82c-.14-1.02-.31-1.68-.61-2.35l-.37-.82h0ZM64.15,69.42c.03-.07.06-.13.08-.19.02.06.03.12.05.19h-.13ZM59.23,78.35c1.11-1.34,2.05-2.81,2.9-4.49h.64c-.44,1.18-.98,2.51-1.38,3.36-.47,1.01-.67,1.3-.77,1.37,0,0,0,0,0,0-.01,0-.05,0-.11,0-.29,0-.77-.08-1.29-.24h0Z"/>
        </g>
        <g>
          <path class="cls-12" d="M67.69,78.41l.44-.04c1.56-.14,3.27-.6,4.82-1.3,2.01-.91,3.51-2.17,4.85-4.11.68-.95,1.15-1.78,1.68-2.95l.38-.83.51.75c.55.81.8,1.09,1.8,1.95l.3.25-.17.35c-1.65,3.39-3.4,5.58-5.84,7.3-2.01,1.43-3.78,2.21-7.03,3.1l-.29.08c-.42.12-.56.15-.95.29l-.7.25.21-5.11ZM72.83,74.34c-.91-1.42-1.82-2.41-2.96-3.19l-.51-.35,2.82-2.76.35.25c1.51,1.08,2.31,1.8,3.28,2.96l.28.33-2.89,3.34-.37-.58Z"/>
          <path class="cls-2" d="M72.24,68.69c1.47,1.05,2.22,1.73,3.18,2.88l-2.16,2.5c-.95-1.48-1.91-2.52-3.1-3.34l2.07-2.03M79.96,70.22c.6.89.89,1.19,1.89,2.05-1.59,3.27-3.26,5.4-5.67,7.11-1.94,1.39-3.63,2.14-6.87,3.03-.69.19-.8.21-1.28.38l.16-3.92c1.63-.15,3.38-.62,4.98-1.34,2.1-.94,3.66-2.26,5.06-4.28.73-1.02,1.2-1.88,1.73-3.03M72.13,67.37l-.61.6-2.07,2.03-.88.86,1.01.7c1.08.74,1.95,1.68,2.82,3.05l.73,1.15.89-1.03,2.16-2.5.57-.65-.55-.66c-1-1.2-1.82-1.94-3.37-3.05l-.69-.5h0ZM79.79,68.15l-.75,1.65c-.53,1.15-.97,1.93-1.63,2.87-1.3,1.86-2.73,3.08-4.65,3.94-1.5.67-3.15,1.12-4.66,1.25l-.89.08-.04.89-.16,3.92-.06,1.49,1.41-.49c.37-.13.48-.16.9-.28l.31-.09c3.31-.91,5.13-1.71,7.19-3.18,2.51-1.77,4.3-4.01,6-7.49l.34-.71-.6-.51c-.97-.83-1.19-1.07-1.71-1.84l-1.01-1.51h0Z"/>
        </g>
        <g>
          <path class="cls-12" d="M85.14,84.25c-.53-1.28-1.02-2.12-1.82-3.11l-.42-.53.62-.26c2.06-.87,3.73-2.04,4.87-3.42-.76-.67-1.6-1.3-2.46-1.82l-.11-.06c-.4.47-.82.92-1.25,1.35l-.42.41-.35-.47c-.58-.79-1.14-1.32-1.94-1.84l-.59-.38.54-.44c2.13-1.74,3.74-4.04,4.29-6.16l.12-.46,3.51.7-.27.58c-.06.13-.13.29-.22.5h1.77c-.08-.14-.17-.27-.26-.41l-.41-.59,2.34-.66.03.04,1.8-.52.21.27c.51.65.83,1.17,1.34,2.13l.28.53-2.06.71.54.54-.13.32c-.11.26-.11.27-.23.95-1.02,5.68-3.68,9.49-8.62,12.34l-.5.29-.22-.54ZM87.96,72.16c1.03.61,1.64,1.01,2.35,1.54.23-.53.43-1.11.57-1.67l-2.99.02-.03.05.1.06Z"/>
          <path class="cls-2" d="M94.34,67.3c.5.64.81,1.14,1.29,2.06l-1.27.44c-.51-1.02-.81-1.54-1.25-2.14l1.23-.35M86.61,67.65l2.41.48c-.12.26-.29.65-.53,1.22l3.18-.02h.24c-.2-.39-.42-.74-.73-1.19l1.32-.37c.5.68.85,1.28,1.23,2.14l-.46.15.95.95c-.13.31-.14.34-.26,1.07-.97,5.36-3.46,9.15-8.37,11.98-.55-1.32-1.07-2.21-1.89-3.23,2.32-.98,4.19-2.35,5.37-3.94-.88-.83-1.89-1.59-2.88-2.2l1.51-2.08c1.27.75,1.87,1.16,2.8,1.89.46-.92.84-2.04,1.02-2.97l-3.94.02c-.7,1.44-1.95,3.12-3.36,4.49-.62-.85-1.23-1.42-2.07-1.96,2.29-1.86,3.89-4.24,4.46-6.42M94.72,66.13l-.66.19-1.13.32-.03-.04-.67.19-1.32.37-.64.18-1.05-.21-2.41-.48-.94-.19-.24.93c-.53,2.02-2.07,4.22-4.12,5.89l-1.08.88,1.17.76c.75.49,1.26.97,1.8,1.71l.69.94.84-.82c.34-.33.68-.69,1-1.05.6.38,1.19.81,1.74,1.28-1.07,1.15-2.56,2.15-4.35,2.9l-1.25.52.85,1.05c.76.94,1.24,1.75,1.75,2.98l.44,1.07,1-.58c5.08-2.93,7.81-6.84,8.86-12.68q.11-.64.2-.85l.27-.63-.2-.2.73-.25,1.12-.39-.56-1.05c-.52-.99-.86-1.53-1.39-2.21l-.42-.54h0ZM90.05,68.33v-.03s.03.03.03.03h-.03ZM89.56,72.55h.64c-.04.12-.08.23-.12.35-.17-.12-.34-.23-.52-.35h0Z"/>
        </g>
        <g>
          <path class="cls-12" d="M110.51,77.09c-.74-.09-1.36-.11-3.2-.12l-8.03-.03c-1.27,0-1.74.02-2.51.09l-.47.04-.73-4.49.7.11c.66.11,1.41.15,2.97.15l7.31.02c1.32,0,1.84-.03,2.71-.14l.4-.05,1.67,4.51-.83-.1Z"/>
          <path class="cls-2" d="M96.19,73.2c.71.12,1.51.15,3.05.16l7.09.02c.08,0,.15,0,.23,0,1.32,0,1.87-.04,2.77-.14l1.25,3.35c-.78-.09-1.48-.11-3.26-.12l-7.41-.03c-.23,0-.44,0-.62,0-1.25,0-1.74.02-2.55.1l-.54-3.33M94.96,71.97l.23,1.39.54,3.33.15.93.94-.09c.75-.07,1.21-.09,2.45-.09h.62s7.41.03,7.41.03c1.79,0,2.43.03,3.14.11l1.65.2-.58-1.56-1.25-3.35-.28-.75-.79.09c-.86.1-1.36.14-2.65.14h-.22s-7.09-.02-7.09-.02c-1.53,0-2.26-.04-2.89-.14l-1.39-.23h0Z"/>
        </g>
        <g>
          <path class="cls-12" d="M119.75,84.5c-1.03-1.29-1.91-2.17-3.46-3.5l-.66-.56.82-.3c1.59-.58,2.4-1.15,3-2.1.52-.82.68-1.65.53-2.87l-6.47-.02c-.95,0-1.21.02-2.05.09l-.38.03-1.56-3.95.87.13c.69.1,1.14.12,2.33.13,0,0,7.39.02,7.39.02.63,0,.65-.01.82-.11l.28-.15,2.44,1.7v.27c0,.25,0,.27.17.92.78,2.85.78,5.07.02,6.8-.63,1.45-1.49,2.36-3.41,3.58l-.38.25-.29-.36ZM119.9,71.2c-.61-.05-1.29-.07-2.22-.08h-4.82c-.96,0-1.25,0-1.82.06l-.37.04-1.5-3.62.89.13c.53.08,1.01.1,1.99.1h4.4c1.11,0,1.64-.02,2.02-.1l.36-.07,2.03,3.61-.96-.08Z"/>
          <path class="cls-2" d="M109.98,68.24c.57.08,1.09.11,2.07.11h4.4s.02,0,.03,0c1.07,0,1.65-.02,2.08-.11l1.38,2.46c-.58-.05-1.27-.08-2.26-.08h-4.65c-.05,0-.1,0-.15,0-1,0-1.31.02-1.89.07l-1.01-2.45M121.17,71.93l1.96,1.37c0,.3,0,.37.2,1.06.73,2.66.77,4.81.04,6.46-.59,1.35-1.4,2.19-3.22,3.36-1.06-1.33-1.95-2.22-3.52-3.57,1.71-.62,2.6-1.26,3.26-2.31.65-1.03.8-2.07.53-3.65l-6.63-.02c-.1,0-.2,0-.29,0-.97,0-1.25.02-2.09.1l-1.1-2.78c.7.1,1.17.13,2.41.13l7.38.02s.05,0,.08,0c.64,0,.73-.02,1-.17M108.35,66.97l.69,1.65.93,2.25-1.25-.18.64,1.63,1.1,2.78.28.7.75-.07c.82-.07,1.08-.09,2.01-.09h.29s5.73.02,5.73.02c.06.98-.15,1.55-.49,2.09-.46.74-1.06,1.28-2.75,1.9l-1.63.6,1.32,1.13c1.54,1.32,2.37,2.15,3.39,3.43l.57.71.77-.49c1.99-1.27,2.94-2.27,3.61-3.81.81-1.83.82-4.17,0-7.14-.16-.58-.16-.59-.16-.78v-.54s-.43-.31-.43-.31l-1.96-1.37-.52-.36-.09.05-.33-.58-1.38-2.46-.36-.64-.72.14c-.34.07-.86.09-1.89.09h-4.43c-.95,0-1.42-.03-1.92-.1l-1.77-.26h0Z"/>
        </g>
      </g>
      <g>
        <text class="cls-3" transform="translate(177.39 65.11)"><tspan class="cls-22" x="0" y="0">MT</tspan><tspan class="cls-17" x="8.82" y="0">®</tspan></text>
        <path class="cls-2" d="M169.28,68.93c3.28,0,5.93-2.66,5.93-5.93s-2.66-5.93-5.93-5.93-5.93,2.66-5.93,5.93,2.66,5.93,5.93,5.93ZM169.28,57.82c2.85,0,5.17,2.31,5.17,5.17s-2.31,5.17-5.17,5.17-5.17-2.31-5.17-5.17,2.31-5.17,5.17-5.17Z"/>
        <path class="cls-2" d="M163,68.93c3.28,0,5.93-2.66,5.93-5.93s-2.66-5.93-5.93-5.93-5.93,2.66-5.93,5.93,2.66,5.93,5.93,5.93ZM163,57.82c2.85,0,5.17,2.31,5.17,5.17s-2.31,5.17-5.17,5.17-5.17-2.31-5.17-5.17,2.31-5.17,5.17-5.17Z"/>
      </g>
      <polygon class="cls-14" points="47.69 47 133.18 47 133.67 48.38 46.46 48.38 47.69 47"/>
      <polygon class="cls-11" points="37.03 63.02 139.5 63.02 140.02 64.4 35.81 64.4 37.03 63.02"/>
      <path class="cls-10" d="M129.19,39.37c1.9,0,3.48-1.01,2.81-1.84-2.36-2.89-9.22-7.07-14.79-9.4-9.02-4,25.17-7.01,40.38-15.27l-1.52,3.07c-2.29,4.63-6.87,7.69-12.03,8.02-6.81.43-15.54.96-17.28,1.47-.77.22-2.04.47-1.96,1.05,12.38,4.26,17.74,6.02,20.05,11.47,1.24,2.94-4.5,5.99-10.75,5.97l-47.5-.21c-5.88-.02-.7-5.55.6-6.96.02,4.09,12.85,2.58,12.85,2.58,1.76-4.24-1.36-8.41-7.11-9.29-1.2-2.99,1.09-7.74,1.73-8.74,0,0-.29,1.93,2.99,4.24,2.02,1.42,7.8,7,4.07,13.81l10.77.02c2.51-2.47,1.36-5.11-1.66-5.8-1.52-.62-.56-3.86,1.84-4.78-1.07,2.59,8.43,5.7,1.19,10.58l15.33.03Z"/>
      <path class="cls-9" d="M68.97,30.96s-2.49-2.6-5.15-2.59c-1.4-3.81,3.8-9.7,3.8-9.7-1.54,10.96,25.12,17.85,11.24,24.57-5.28,2.56-12.43-.34-14.62-1.65-5.45,1.38-9.48,3.32-12.97,1.17-4.87-2.99,6.62-20.8-2.31-20.33,1.21-5.44,10.16-8.05,10.16-8.05-3.7,3.29-1.31,4.76-2.32,14.01-.73,6.73-7.84,15.03,5.1,10.95-6.79-8.74,7.08-8.38,7.08-8.38ZM66.5,33.87c-3.72.6-1.63,3.91-.73,4.54.92-.35,5.83-1.53,5.83-3.15s-1.69-1.95-5.1-1.39ZM76.56,41.53c3.79-1.41-.28-4.05-1.39-4.79-.97,1.99-6.53,3.37-6.53,3.37,0,0,5.27,1.84,7.92,1.42Z"/>
      <path class="cls-6" d="M32.67,42.6c5.88-4.27-2.31-19.64-4.75-19.82,1.28-4.73,6.09-6.11,6.09-6.11-2.39,3.27.94,9.31,2.35,12.97,3.84,9.92-3.69,12.97-3.69,12.97Z"/>
      <path class="cls-7" d="M162.65,0s1.63,6.43-4.69,10.62c-12.33,7.1-29.97,9.2-39.55,12.63s0,0,0,0c1.52-2.18,5.75-5.4,10.07-6.24,8.55-1.67,32.15-10.42,34.17-17.02Z"/>
      <path class="cls-5" d="M47.15,27.3c-1.15.17-6.84,4.62-6.55,7.39,2.55-.82,3.82,4.59,2.53,7.06-5.3,10.17-38.03,14.03-43.12,8.07,1.31,7.18,39.33,8.39,45.85-7.55,3.11-7.6-2.35-10.58,1.3-14.98Z"/>
      <g>
        <g>
          <polygon class="cls-13" points="169.17 22.27 168.25 23.87 170.1 23.86 169.17 22.27"/>
          <polygon class="cls-2" points="169.18 24.4 170.09 22.8 168.25 22.81 169.18 24.4"/>
          <polygon class="cls-15" points="169.17 22.9 168.79 23.56 169.55 23.55 169.17 22.9"/>
        </g>
        <path class="cls-2" d="M170.71,23.66s0,.08,0,.12c-.03.84-.73,1.49-1.57,1.46s-1.49-.73-1.46-1.57c0-.04,0-.08,0-.12-.1.2-.16.43-.16.66-.03.91.68,1.68,1.6,1.71s1.68-.68,1.71-1.6c0-.24-.04-.47-.12-.67Z"/>
        <g>
          <path class="cls-2" d="M171.28,27.21c.34,0,.62.28.62.62v8.73c0,.34-.28.62-.62.62h-4c-.34,0-.62-.28-.62-.62v-8.73c0-.34.28-.62.62-.62h4M171.28,26.68h-4c-.63,0-1.14.51-1.14,1.14v8.73c0,.63.51,1.14,1.14,1.14h4c.63,0,1.14-.51,1.14-1.14v-8.73c0-.63-.51-1.14-1.14-1.14h0Z"/>
          <g>
            <path class="cls-2" d="M170.09,34.92h-2.35v.39h1.57v.78h-.39v-.39h-1.18v.78h-.39v-2.35h.39v.39h2.35v.39Z"/>
            <path class="cls-2" d="M170.09,32.3h-1.18v1.18h.39v.39h-.79v-1.57h-.78v1.96h-.39v-2.74h.39v.39h2.35v.39Z"/>
            <path class="cls-2" d="M170.48,32.82h-.39v-.39h.39v.39ZM170.87,32.43h-.39v-.39h.39v.39ZM171.26,32.04h-.39v-.39h.39v.39Z"/>
            <path class="cls-2" d="M170.09,29.81h-.39v1.18h-.39v-1.18h-1.96v-.79h.39v.39h2.35v.39ZM168.52,31.38h-.78v.39h-.39v-.78h1.18v.39ZM168.91,30.99h-.39v-.79h.39v.79ZM169.31,31.38h-.39v-.39h.39v.39Z"/>
            <path class="cls-2" d="M170.09,28.76h-2.35v.39h-.39v-1.18h.39v.39h2.35v.39Z"/>
          </g>
        </g>
      </g>
      <g>
        <path class="cls-2" d="M45.48,53.6l-2.49,1.17.22.32,1.3-.61h.2l-2.11,3h5.56l.6-.95h-4.19l1.41-2.05h4.28l1.5,1.9-1.97,3.33h-9.84l-.87-1.44,1.4-1.89,1.91-.9-.59-.87,1.27-1.71,2.64-1.2h8.82l-.71,1.2-1.42.7h-6.9Z"/>
        <path class="cls-2" d="M60.92,56.53h-5.49l-1.72,3.18h-3.03l3.17-5.48,5.06-2.53h5.24l1.22,1.2-.73,1.71-1.61.87.85.9-1.42,3.33h-3.03l1.48-3.18ZM57.37,54.48h4.71l.59.61.6-.32-1.13-1.17h-3.06c-1.13.58-.57.29-1.71.88Z"/>
        <path class="cls-2" d="M74.36,55.92l.56-.34-1.21-1.09.84-2.79h2.72l-.97,3.72-1.48.89,1.01.91-.65,2.48h-3.03l.47-1.57-4.12-3.95-2.07,5.52h-3.03l3.32-8.01h3.02l4.64,4.21Z"/>
        <path class="cls-2" d="M78.08,51.7h8.83l1.61,1.2-.17,1.71-1.32.87,1.15.9-.18,1.89-2.07,1.44h-9.86l2-8.01ZM79.58,57.48h5.56l.41-3h.2l.79.61.49-.32-1.51-1.17h-5.12l-.82,3.88Z"/>
        <path class="cls-2" d="M90.51,54.77l.44.32.9-.61h5.53l-.08-2.77h2.72l.54,8.01h-3.03l-.09-3.18h-5.49l-.15,3.18h-3.03l.28-3.33,1.32-.9-1.17-.87.25-2.91h2.72l-.09,2c-1.04.7-.52.35-1.57,1.06Z"/>
        <path class="cls-2" d="M109.61,56.53h-5.49l.38,3.18h-3.03l-.44-5.48,3.39-2.53h5.24l2.01,1.2.4,1.71-1.03.87,1.44.9.77,3.33h-3.03l-.62-3.18ZM104.7,54.48h4.71l.99.61.39-.32-1.9-1.17h-3.06c-.75.58-.38.29-1.13.88Z"/>
        <path class="cls-2" d="M117.29,56.53l-.79.73.69,2.45h-3.03l-.81-3.33,1.02-.9-1.45-.87-.42-1.71,1.45-1.2h8.82l1.11,2.79-1.86,1.84c2.22,1.28,1.1.63,3.36,1.93l.57,1.44h-2.35l-5.36-3.18h-.95ZM115.51,54.48h4.4l.94-.88h-5.24c-.89.77-.45.39-1.34,1.17l.54.32.7-.61Z"/>
        <path class="cls-2" d="M133.95,56.53h-5.49l1.43,3.18h-3.03l-2.24-5.48,2.56-2.53h5.24l2.4,1.2.96,1.71-.74.87,1.74.9,1.87,3.33h-3.03l-1.66-3.18ZM128.37,54.48h4.71l1.19.61.28-.32-2.28-1.17h-3.06c-.56.58-.28.29-.84.88Z"/>
      </g>
      <g>
        <polygon class="cls-4" points="108.63 21.05 114.15 27.37 106.79 23.33 101.27 17.02 108.63 21.05"/>
        <polygon class="cls-8" points="108.75 21.99 108.83 28.08 106.67 22.39 106.59 16.3 108.75 21.99"/>
        <polygon class="cls-18" points="107.77 23.25 101.72 22.52 107.65 21.13 113.7 21.87 107.77 23.25"/>
        <polygon class="cls-19" points="108.85 23.11 102.49 28.08 106.57 21.28 125.24 1.49 108.85 23.11"/>
      </g>
      <g>
        <rect class="cls-16" x="142.12" y="56.41" width="2.5" height="2.5"/>
        <rect class="cls-16" x="144.66" y="58.95" width="2.5" height="2.5"/>
        <rect class="cls-16" x="147.16" y="56.41" width="2.5" height="2.5"/>
        <rect class="cls-16" x="142.12" y="61.49" width="2.5" height="2.5"/>
        <rect class="cls-16" x="144.66" y="64.03" width="2.5" height="2.5"/>
        <rect class="cls-16" x="147.16" y="61.49" width="2.5" height="2.5"/>
        <rect class="cls-16" x="142.12" y="66.53" width="2.5" height="2.5"/>
        <rect class="cls-16" x="147.16" y="66.53" width="2.5" height="2.5"/>
        <rect class="cls-16" x="149.66" y="58.95" width="2.5" height="2.5"/>
        <rect class="cls-16" x="152.16" y="56.41" width="2.5" height="2.5"/>
        <rect class="cls-16" x="149.66" y="64.03" width="2.5" height="2.5"/>
        <rect class="cls-16" x="152.16" y="61.49" width="2.5" height="2.5"/>
        <rect class="cls-16" x="152.16" y="66.53" width="2.5" height="2.5"/>
      </g>
      <g id="q2F7of.tif">
        <g>
          <path class="cls-2" d="M151.03,61.07l-3.79-.02-.07-.06.02-.42h4.32s0,3.38,0,3.38c-.02.03-.04,0-.05,0h-1.37l-.02-.02v-1.41l.02-.02h.91l.02-.02v-.38s.01-.04-.02-.07h-3.8c-.07-.12-.05-.36,0-.49h3.8l.04-.04s-.01-.04-.01-.04v-.37ZM151.03,63.44v-.45s-.44.01-.44.01v.43s.41.03.44,0Z"/>
          <path class="cls-2" d="M145.27,62.49h3.34c.07.01.05.42.03.49-.03.03-.05,0-.07,0h-2.79l-.02.04v.41l.02.02h1.88s-.02.49-.02.49h-1.87l-.02.04v.41h1.88s.04.46.04.46l-.04.05h-1.87l-.02.04v.4l.02.02h1.84c.11.09.03.32.05.45l-.04.05h-2.35l-.02-.02v-3.37Z"/>
          <path class="cls-2" d="M149.6,62.49l.02.05v2.81c.03.05.04.02.07.02h.37l.02-.02v-.91l.02-.02h1.35s.02-.02.05,0v1.46s-2.4-.03-2.4-.03v-3.34l.02-.02h.47ZM151.03,65.38v-.38s.02-.05-.02-.08h-.4l-.04.04v.4s.05.02.08.02h.38Z"/>
          <path class="cls-2" d="M151.52,59.59v.49h-5.26c-.06-.11-.06-.38,0-.49h5.26Z"/>
          <path class="cls-2" d="M145.77,61.05l-.02.04v.91l-.02.02h-.47v-2.39c.11-.06.38-.06.49,0v.91l.02.02h.89l.04.04v1.4l-.02.02h-.45l-.06-.97h-.41Z"/>
          <path class="cls-2" d="M148.63,65.4v.47s-.47,0-.47,0v-.46s.44-.04.47,0Z"/>
          <rect class="cls-2" x="148.16" y="64.43" width=".47" height=".47" transform="translate(83.07 212.77) rotate(-89.75)"/>
          <path class="cls-2" d="M148.56,63.46s.03-.02.06,0v.48s-.48-.02-.48-.02v-.43l.02-.02c.13,0,.27-.01.4,0Z"/>
        </g>
      </g>
      <rect class="cls-21" x="141.25" y="30.77" width="22.97" height="22.97" rx="2.49" ry="2.49"/>
      <path class="cls-1" d="M41.36,67.17l.67,2.1s.02.05.04.07c.02.02.04.03.06.03.05,0,.09-.03.11-.1l.67-2.1h.67s-.73,2.36-.73,2.36c-.05.15-.14.27-.27.35-.13.08-.28.12-.45.12-.3,0-.52-.13-.66-.4l-.03-.05-.55-1.75-.02-.04h-1.45c-.07,0-.13.03-.18.08-.05.05-.07.12-.07.19,0,.06.02.11.05.16.04.04.08.06.13.06h.91c.21,0,.39.09.53.27.13.17.2.37.2.6s-.07.44-.2.58c-.15.16-.35.24-.63.24h-1.5v-.59h1.47c.07,0,.12-.03.16-.09.04-.06.06-.12.06-.2,0-.07-.02-.12-.06-.17-.04-.05-.09-.07-.15-.07h-.79c-.23,0-.43-.07-.59-.22-.16-.15-.24-.34-.24-.58s.07-.44.21-.6c.14-.18.32-.27.54-.27h2.07ZM45.67,69.23s0,.07-.03.1c-.02.03-.04.05-.07.05-.04,0-.07,0-.1-.02-.03-.02-.05-.05-.06-.09l-.03-.11-.46-1.61c-.05-.16-.14-.28-.29-.36-.13-.07-.29-.1-.48-.1-.22,0-.38.06-.5.19-.11.13-.17.31-.17.54v2.12h.63v-2.14c0-.05.03-.08.08-.09.03,0,.06,0,.09.02.03.02.04.05.05.09l.06.19.4,1.41c.05.18.15.32.29.43.14.1.31.16.49.16.23,0,.39-.04.5-.13.14-.11.21-.31.21-.58v-2.13h-.62v2.06h0ZM37.95,69.55c-.05.15-.13.27-.26.35-.13.08-.27.12-.44.12s-.31-.04-.44-.12c-.12-.08-.21-.19-.25-.34l-.75-2.38h.63l.72,2.14s.04.07.08.07c.04,0,.07-.02.08-.07l.71-2.14h.66l-.74,2.38h0Z"/>
      <g>
        <path class="cls-12" d="M147.5,41.49h2.81l-1.01,2.14h-1.81v6.18h-2.11v-14.97h6.31v2.14h-4.2v4.51Z"/>
        <path class="cls-12" d="M155.51,45.48l1.44-10.63h2.94v14.97h-2v-10.74l-1.46,10.74h-2l-1.58-10.59v10.59h-1.84v-14.97h2.94l1.56,10.63Z"/>
      </g>
    </g>
  </g>
</svg>